{"asset":{"generator":"Khronos glTF Blender I/O v3.6.27","version":"2.0"},"scene":0,"scenes":[{"name":"Scene","nodes":[0]}],"nodes":[{"mesh":0,"name":"Cube.001","scale":[0.975989043712616,3.712461471557617,1],"translation":[-3.360684394836426,2.9131240844726562,-0.24576203525066376]}],"materials":[{"doubleSided":true,"name":"Material.001","pbrMetallicRoughness":{"baseColorFactor":[0.8000000715255737,0.6470000147819519,0.020999999716877937,1],"metallicFactor":0,"roughnessFactor":0.5}}],"meshes":[{"name":"Cube.002","primitives":[{"attributes":{"POSITION":0,"NORMAL":1},"indices":2,"material":0}]}],"accessors":[{"bufferView":0,"componentType":5126,"count":116,"max":[0.9999997615814209,-0.4739525318145752,1],"min":[-0.9999997615814209,-1,0.3301490843296051],"type":"VEC3"},{"bufferView":1,"componentType":5126,"count":116,"type":"VEC3"},{"bufferView":2,"componentType":5123,"count":240,"type":"SCALAR"}],"bufferViews":[{"buffer":0,"byteLength":1392,"byteOffset":0,"target":34962},{"buffer":0,"byteLength":1392,"byteOffset":1392,"target":34962},{"buffer":0,"byteLength":480,"byteOffset":2784,"target":34963}],"buffers":[{"byteLength":3264,"uri":"data:application/octet-stream;base64,"}]}